<svg xmlns="http://www.w3.org/2000/svg"  viewBox="0 0 48 48" width="144px" height="144px"><circle cx="24" cy="24" r="15" fill="#f5bc00"/><rect width="8.064" height="4" x="31.282" y="10.655" fill="#f5bc00" transform="rotate(-45.001 35.314 12.655)"/><rect width="4" height="8.064" x="22" y="3.936" fill="#f5bc00"/><rect width="8.064" height="4" x="35.968" y="21.968" fill="#f5bc00"/><rect width="4" height="8.064" x="33.314" y="31.25" fill="#f5bc00" transform="rotate(-45.001 35.314 35.282)"/><rect width="4" height="8.064" x="22" y="35.936" fill="#f5bc00"/><rect width="8.064" height="4" x="8.654" y="33.282" fill="#f5bc00" transform="rotate(-45.001 12.686 35.282)"/><rect width="8.064" height="4" x="3.968" y="21.968" fill="#f5bc00"/><rect width="4" height="8.064" x="10.686" y="8.622" fill="#f5bc00" transform="rotate(-45.001 12.686 12.655)"/><path fill="#eb7900" d="M35.968,25.968h2.888C38.941,25.323,39,24.669,39,24c0-0.691-0.063-1.366-0.153-2.032h-2.879V25.968 z"/><path fill="#eb7900" d="M33.068,12.072l-2.02,2.02l2.828,2.828l2.024-2.024C35.086,13.832,34.135,12.883,33.068,12.072z"/><path fill="#eb7900" d="M26,9.149C25.344,9.061,24.68,9,24,9s-1.344,0.061-2,0.149V12h4V9.149z"/><path fill="#eb7900" d="M33.877,31.017l-2.828,2.828l2.056,2.056c1.063-0.815,2.012-1.767,2.823-2.833L33.877,31.017z"/><path fill="#eb7900" d="M22,38.851C22.656,38.939,23.32,39,24,39s1.344-0.061,2-0.149v-2.915h-4V38.851z"/><path fill="#eb7900" d="M12.071,33.068c0.812,1.066,1.76,2.018,2.823,2.833l2.056-2.056l-2.828-2.828L12.071,33.068z"/><path fill="#eb7900" d="M9.144,25.968h2.888v-4H9.153C9.063,22.634,9,23.309,9,24C9,24.669,9.059,25.323,9.144,25.968z"/><path fill="#eb7900" d="M12.099,14.895l2.024,2.024l2.828-2.828l-2.02-2.02C13.865,12.883,12.914,13.832,12.099,14.895z"/><rect width="8.064" height="4" x="31.282" y="10.655" fill="#f5bc00" transform="rotate(-45.001 35.314 12.655)"/><rect width="4" height="8.064" x="22" y="3.936" fill="#f5bc00"/><rect width="8.064" height="4" x="35.968" y="21.968" fill="#f5bc00"/><rect width="4" height="8.064" x="33.314" y="31.25" fill="#f5bc00" transform="rotate(-45.001 35.314 35.282)"/><rect width="4" height="8.064" x="22" y="35.936" fill="#f5bc00"/><rect width="8.064" height="4" x="8.654" y="33.282" fill="#f5bc00" transform="rotate(-45.001 12.686 35.282)"/><rect width="8.064" height="4" x="3.968" y="21.968" fill="#f5bc00"/><rect width="4" height="8.064" x="10.686" y="8.622" fill="#f5bc00" transform="rotate(-45.001 12.686 12.655)"/><path fill="#eb7900" d="M35.968,25.968h2.888C38.941,25.323,39,24.669,39,24c0-0.691-0.063-1.366-0.153-2.032h-2.879V25.968 z"/><path fill="#eb7900" d="M33.068,12.072l-2.02,2.02l2.828,2.828l2.024-2.024C35.086,13.832,34.135,12.883,33.068,12.072z"/><path fill="#eb7900" d="M26,9.149C25.344,9.061,24.68,9,24,9s-1.344,0.061-2,0.149V12h4V9.149z"/><path fill="#eb7900" d="M33.877,31.017l-2.828,2.828l2.056,2.056c1.063-0.815,2.012-1.767,2.823-2.833L33.877,31.017z"/><path fill="#eb7900" d="M22,38.851C22.656,38.939,23.32,39,24,39s1.344-0.061,2-0.149v-2.915h-4V38.851z"/><path fill="#eb7900" d="M12.071,33.068c0.812,1.066,1.76,2.018,2.823,2.833l2.056-2.056l-2.828-2.828L12.071,33.068z"/><path fill="#eb7900" d="M9.144,25.968h2.888v-4H9.153C9.063,22.634,9,23.309,9,24C9,24.669,9.059,25.323,9.144,25.968z"/><path fill="#eb7900" d="M12.099,14.895l2.024,2.024l2.828-2.828l-2.02-2.02C13.865,12.883,12.914,13.832,12.099,14.895z"/></svg>